PathFileType	4	(X/Y/Z)	C:/Users/opensim2020/Desktop/walking_exp_matlab/subject06_walking18_straight_03.trc																																																																																																																																											
DataRate	CameraRate	NumFrames	NumMarkers	Units	OrigDataRate	OrigDataStartFrame	OrigNumFrames																																																																																																																																							
100	100	4	47	mm	100	3508	309																																																																																																																																							
Frame#	Time	LFHD			RFHD			LBHD			RBHD			C7			T10			CLAV			STRN			RBAK			LSHO			LUPA			LELB			LFRM			LWRA			LWRB			LFIN			RSHO			RUPA			RELB			RFRM			RWRA			RWRB			RFIN			LASI			RASI			LPSI			RPSI			LTHI			LKNE			LTIB			LANK			LHEE			LTOE			RTHI			RKNE			RTIB			RANK			RHEE			RTOE			*39			*40			*41			*42			*43			*44			*45			*46		
		X1	Y1	Z1	X2	Y2	Z2	X3	Y3	Z3	X4	Y4	Z4	X5	Y5	Z5	X6	Y6	Z6	X7	Y7	Z7	X8	Y8	Z8	X9	Y9	Z9	X10	Y10	Z10	X11	Y11	Z11	X12	Y12	Z12	X13	Y13	Z13	X14	Y14	Z14	X15	Y15	Z15	X16	Y16	Z16	X17	Y17	Z17	X18	Y18	Z18	X19	Y19	Z19	X20	Y20	Z20	X21	Y21	Z21	X22	Y22	Z22	X23	Y23	Z23	X24	Y24	Z24	X25	Y25	Z25	X26	Y26	Z26	X27	Y27	Z27	X28	Y28	Z28	X29	Y29	Z29	X30	Y30	Z30	X31	Y31	Z31	X32	Y32	Z32	X33	Y33	Z33	X34	Y34	Z34	X35	Y35	Z35	X36	Y36	Z36	X37	Y37	Z37	X38	Y38	Z38	X39	Y39	Z39	X40	Y40	Z40	X41	Y41	Z41	X42	Y42	Z42	X43	Y43	Z43	X44	Y44	Z44	X45	Y45	Z45	X46	Y46	Z46	X47	Y47	Z47
																																																																																																																																														
194	1.93	484.00296	1669.4823	1392.02905	479.68573	1652.22681	1522.10413	352.06735	1612.56458	1385.7074	349.83972	1601.10828	1514.65967	352.98392	1453.13245	1435.12695	320.0556	1125.04968	1438.37891	463.0531	1377.06628	1437.76672	505.03201	1202.66736	1427.01074	280.28854	1280.77344	1507.94617	416.63171	1412.0542	1275.97314	441.09229	1210.62537	1205.69324	456.2702	1097.74622	1196.93237	542.63037	973.79303	1194.04761	645.72729	911.2514	1254.72168	601.06342	871.91864	1217.04321	677.18616	824.83203	1229.25232	413.35001	1405.37695	1597.64233	366.97336	1205.76648	1678.0719	369.43265	1083.09607	1683.90295	373.97525	962.44495	1697.84485	419.54572	817.91882	1664.02454	366.44821	824.50842	1703.94617	395.44452	744.82208	1705.401	492.36166	961.44202	1328.22327	504.00436	974.90796	1548.98303	337.40753	991.60529	1361.70679	352.88031	998.42505	1528.99048	394.11902	645.72528	1278.00415	373.51938	482.15497	1296.62708	208.87665	283.2428	1304.34277	113.27023	138.71414	1345.38074	71.45798	146.76157	1391.1438	219.0782	40.11443	1353.71948	486.3573	643.29559	1611.08264	511.95731	522.60748	1582.02185	508.49948	255.87306	1583.22156	525.17615	70.49918	1536.46741	488.17407	46.54975	1491.5907	680.4657	42.8969	1530.07581	381.0256	1703.27319	1450.02783	NaN	NaN	NaN	NaN	NaN	NaN	NaN	NaN	NaN	NaN	NaN	NaN	NaN	NaN	NaN	NaN	NaN	NaN	NaN	NaN	NaN
195	1.94	490.42432	1670.53406	1393.70959	486.16241	1653.24841	1523.54871	358.6171	1613.36414	1387.5802	356.59134	1601.95313	1516.54639	359.9097	1454.00818	1437.10938	327.24026	1125.94812	1440.79529	470.04883	1378.09851	1439.51538	512.25146	1203.77869	1428.88818	287.59164	1281.84192	1510.43518	423.22363	1412.96521	1277.89514	447.62787	1211.66321	1207.61133	461.93216	1098.84705	1198.92297	547.7287	974.10553	1194.9115	650.30469	910.27307	1255.12109	605.21832	871.63275	1216.99194	680.9798	823.64465	1229.10376	420.8244	1406.65442	1599.39563	374.92313	1207.06274	1680.1908	377.68536	1084.27759	1685.922	382.81189	963.73505	1699.9342	429.12668	819.51782	1665.93127	376.14218	825.65704	1705.57373	405.72687	746.14783	1706.85303	498.93408	962.83148	1329.72742	511.38452	975.46808	1550.3208	344.16705	992.47986	1363.93225	358.71622	999.93549	1531.18445	404.01337	646.27356	1278.64026	385.88721	482.4917	1296.72241	218.34218	286.78891	1305.41602	119.97581	144.54416	1346.55017	79.20032	153.95976	1392.94116	220.50415	40.60814	1354.65222	491.68195	643.67212	1612.16248	515.45984	522.41492	1583.39233	509.19699	255.66191	1583.60559	525.40729	70.45214	1536.40283	488.17862	46.67003	1491.55334	680.71881	42.28477	1529.84119	387.483	1704.13892	1451.80334	NaN	NaN	NaN	NaN	NaN	NaN	NaN	NaN	NaN	NaN	NaN	NaN	NaN	NaN	NaN	NaN	NaN	NaN	NaN	NaN	NaN
196	1.95	496.83075	1671.51587	1395.27869	492.77948	1654.26794	1525.16943	365.1478	1614.03235	1389.32227	363.28259	1602.64636	1518.3103	366.85788	1454.73962	1439.05994	334.30197	1126.73938	1443.16797	477.00314	1379.01758	1441.27673	519.29492	1204.64429	1430.71313	294.85178	1282.59167	1512.95984	429.69556	1413.69299	1279.74109	453.71439	1212.29041	1209.47559	468.11102	1099.59949	1200.48328	552.37433	974.18176	1195.86572	654.6792	908.97174	1255.37891	609.19611	871.03119	1216.94287	684.48328	822.27014	1228.83008	428.24411	1407.71375	1601.24194	382.82745	1208.13721	1682.35779	385.95914	1085.38123	1688.17139	391.97922	964.74469	1701.79932	439.03839	820.83649	1667.61377	385.99783	826.60889	1707.28564	416.19073	747.2608	1708.19629	505.59338	964.06744	1331.33447	518.6037	975.96783	1551.82983	350.815	993.16138	1366.01355	365.99051	1000.61102	1533.17285	413.72656	646.86633	1279.27258	398.04614	482.80295	1296.82483	228.15849	290.3028	1306.62683	127.23852	150.18491	1347.65869	87.59171	160.87489	1394.88306	222.66502	41.46019	1354.88953	496.94547	643.96582	1613.12549	518.77734	522.20056	1584.71631	510.40219	255.52037	1584.20435	525.59552	70.37623	1536.35376	488.39014	46.55233	1491.32141	681.08441	41.89628	1529.77332	393.82086	1704.87805	1453.48865	NaN	NaN	NaN	NaN	NaN	NaN	NaN	NaN	NaN	NaN	NaN	NaN	NaN	NaN	NaN	NaN	NaN	NaN	NaN	NaN	NaN
197	1.96	503.14386	1672.32336	1396.71118	499.36356	1655.16174	1526.59302	371.59137	1614.49609	1391.05481	369.92105	1603.23743	1520.03857	373.66772	1455.51733	1441.06604	341.10205	1127.27087	1445.45142	483.89865	1379.75977	1442.95813	526.19562	1205.36658	1432.48706	301.9762	1283.19507	1515.52051	435.94962	1414.14514	1281.51697	459.4079	1212.66907	1211.23425	473.87039	1100.03259	1202.08777	556.86078	973.94141	1196.69958	658.78839	907.38745	1255.49622	612.90869	870.21069	1216.84375	687.89783	820.64374	1228.34705	435.63583	1408.57288	1603.01453	390.76935	1208.94678	1684.58655	394.34109	1086.21082	1690.38281	401.08975	965.60016	1703.86694	449.11325	822.00922	1669.04834	396.18069	827.36121	1709.0614	426.91083	748.23798	1709.62549	512.03217	965.05798	1332.91101	525.53088	976.28851	1553.36084	357.29367	993.68512	1367.90906	372.68552	1001.21381	1534.96765	423.1936	647.30475	1279.99243	410.23096	483.06064	1296.98499	238.29662	293.73526	1307.86475	134.91705	155.66777	1348.84766	96.4722	167.38181	1396.78296	225.51486	42.73086	1354.62476	502.30569	644.44861	1614.33228	522.25958	522.13452	1586.14368	512.21667	255.45874	1585.05322	525.77808	70.33022	1536.39832	488.27298	46.80078	1491.57837	681.16431	41.43679	1529.52441	400.09314	1705.47278	1455.02063	NaN	NaN	NaN	NaN	NaN	NaN	NaN	NaN	NaN	NaN	NaN	NaN	NaN	NaN	NaN	NaN	NaN	NaN	NaN	NaN	NaN
